<?xml version="1.0" encoding="utf-8"?>
<svg version="1.1" xmlns:xlink="http://www.w3.org/1999/xlink" width="114px" height="30px" xmlns="http://www.w3.org/2000/svg">
  <defs>
    <mask fill="white" id="clip73">
      <path d="M 0 25  L 0 5  C 0 2.2  2.38857142857142 0  5.42857142857143 0  L 82.5142857142857 0  L 108.571428571429 0  C 111.611428571429 0  114 2.2  114 5  L 114 25  C 114 27.8  111.611428571429 30  108.571428571429 30  L 5.42857142857143 30  C 2.38857142857142 30  0 27.8  0 25  Z " fill-rule="evenodd" />
    </mask>
  </defs>
  <g transform="matrix(1 0 0 1 -251 -105 )">
    <path d="M 0 25  L 0 5  C 0 2.2  2.38857142857142 0  5.42857142857143 0  L 82.5142857142857 0  L 108.571428571429 0  C 111.611428571429 0  114 2.2  114 5  L 114 25  C 114 27.8  111.611428571429 30  108.571428571429 30  L 5.42857142857143 30  C 2.38857142857142 30  0 27.8  0 25  Z " fill-rule="nonzero" fill="#ffffff" stroke="none" transform="matrix(1 0 0 1 251 105 )" />
    <path d="M 0 25  L 0 5  C 0 2.2  2.38857142857142 0  5.42857142857143 0  L 82.5142857142857 0  L 108.571428571429 0  C 111.611428571429 0  114 2.2  114 5  L 114 25  C 114 27.8  111.611428571429 30  108.571428571429 30  L 5.42857142857143 30  C 2.38857142857142 30  0 27.8  0 25  Z " stroke-width="2" stroke="#797979" fill="none" transform="matrix(1 0 0 1 251 105 )" mask="url(#clip73)" />
  </g>
</svg>