<?xml version="1.0" encoding="utf-8"?>
<svg version="1.1" xmlns:xlink="http://www.w3.org/1999/xlink" width="18px" height="18px" preserveAspectRatio="xMinYMid meet" viewBox="174 785  18 16" xmlns="http://www.w3.org/2000/svg">
  <path d="M 704.5 972  L 704.5 1015  A 5 5 0 0 1 699.5 1020.5 L 205 1020.5  A 5 5 0 0 1 200.5 1015 L 200.5 897  A 3 3 0 0 0 203.5 894 A 3 3 0 0 0 200.5 891 L 200.5 798  A 5 5 0 0 0 195.5 793.5 L 183 793.5  " stroke-width="1" stroke="#0099cc" fill="none" />
  <path d="M 188.053553390593 798.146446609407  L 183.407106781186 793.5  L 188.053553390593 788.853553390593  L 187.346446609407 788.146446609407  L 182.346446609407 793.146446609407  L 181.992893218813 793.5  L 182.346446609407 793.853553390593  L 187.346446609407 798.853553390593  L 188.053553390593 798.146446609407  Z " fill-rule="nonzero" fill="#0099cc" stroke="none" />
</svg>